<?xml version="1.0" encoding="UTF-8"?>
<!DOCTYPE svg PUBLIC "-//W3C//DTD SVG 1.1//EN" "http://www.w3.org/Graphics/SVG/1.1/DTD/svg11.dtd">
<!-- Creator: CorelDRAW X7 -->
<svg xmlns="http://www.w3.org/2000/svg" xml:space="preserve" width="297mm" height="210mm" version="1.1" style="shape-rendering:geometricPrecision; text-rendering:geometricPrecision; image-rendering:optimizeQuality; fill-rule:evenodd; clip-rule:evenodd"
viewBox="0 0 29700 21000"
 xmlns:xlink="http://www.w3.org/1999/xlink">
 <defs>
  <style type="text/css">
   <![CDATA[
    .fil0 {fill:#FDE400}
   ]]>
  </style>
 </defs>
 <g id="Layer_x0020_1">
  <metadata id="CorelCorpID_0Corel-Layer"/>
  <path class="fil0" d="M14850 3005c4140,0 7495,3355 7495,7495 0,4140 -3355,7495 -7495,7495 -4140,0 -7495,-3355 -7495,-7495 0,-4140 3355,-7495 7495,-7495zm1184 7436l2218 -1987c101,-94 111,-254 17,-358 -91,-104 -251,-114 -358,-19l-3058 2745 -595 -533c0,-4 -3,-4 -3,-7 -13,-13 -26,-23 -43,-36l-2426 -2173c-104,-91 -264,-81 -358,23 -94,104 -85,264 20,358l2244 2004 -2235 2091c-101,98 -107,257 -9,358 48,52 117,81 185,81 62,0 124,-22 172,-68l2268 -2121 614 550c49,42 111,65 170,65 58,0 123,-23 169,-65l631 -569 2254 2143c49,46 114,69 176,69 68,0 133,-26 182,-78 97,-101 94,-264 -7,-358l-2228 -2115 0 0zm2241 -3389l-6850 0c-609,0 -1106,494 -1106,1106l0 4684c0,612 497,1106 1106,1106l6850 0c612,0 1106,-494 1106,-1106l0 -4681c3,-611 -494,-1109 -1106,-1109zm602 5790c0,332 -270,602 -602,602l-6850 0c-332,0 -602,-270 -602,-602l0 -4681c0,-332 270,-602 602,-602l6850 0c332,0 602,270 602,602l0 4681 0 0z"/>
 </g>
</svg>
