<?xml version="1.0" encoding="UTF-8"?>
<!DOCTYPE svg PUBLIC "-//W3C//DTD SVG 1.1//EN" "http://www.w3.org/Graphics/SVG/1.1/DTD/svg11.dtd">
<!-- Creator: CorelDRAW X7 -->
<svg xmlns="http://www.w3.org/2000/svg" xml:space="preserve" width="297mm" height="210mm" version="1.1" style="shape-rendering:geometricPrecision; text-rendering:geometricPrecision; image-rendering:optimizeQuality; fill-rule:evenodd; clip-rule:evenodd"
viewBox="0 0 29700 21000"
 xmlns:xlink="http://www.w3.org/1999/xlink">
 <defs>
  <style type="text/css">
   <![CDATA[
    .fil0 {fill:#FDE400}
   ]]>
  </style>
 </defs>
 <g id="Layer_x0020_1">
  <metadata id="CorelCorpID_0Corel-Layer"/>
  <path class="fil0" d="M22247 10500c0,-4085 -3312,-7397 -7397,-7397 -4085,0 -7397,3312 -7397,7397 0,4085 3312,7397 7397,7397 4085,0 7397,-3312 7397,-7397zm-5537 290l-1320 0 0 4835 -2000 0 0 -4835 -951 0 0 -1700 951 0 0 -1100c0,-786 373,-2017 2018,-2017l1481 6 0 1649 -1075 0c-176,0 -424,88 -424,464l0 1000 1494 0 -174 1698z"/>
 </g>
</svg>
