<?xml version="1.0" encoding="UTF-8"?>
<!DOCTYPE svg PUBLIC "-//W3C//DTD SVG 1.1//EN" "http://www.w3.org/Graphics/SVG/1.1/DTD/svg11.dtd">
<!-- Creator: CorelDRAW X7 -->
<svg xmlns="http://www.w3.org/2000/svg" xml:space="preserve" width="297mm" height="210mm" version="1.1" style="shape-rendering:geometricPrecision; text-rendering:geometricPrecision; image-rendering:optimizeQuality; fill-rule:evenodd; clip-rule:evenodd"
viewBox="0 0 29700 21000"
 xmlns:xlink="http://www.w3.org/1999/xlink">
 <defs>
  <style type="text/css">
   <![CDATA[
    .fil0 {fill:#FDE400}
   ]]>
  </style>
 </defs>
 <g id="Layer_x0020_1">
  <metadata id="CorelCorpID_0Corel-Layer"/>
  <path class="fil0" d="M14850 3110c4081,0 7390,3309 7390,7390 0,4081 -3309,7390 -7390,7390 -4081,0 -7390,-3309 -7390,-7390 0,-4081 3309,-7390 7390,-7390zm2651 5030c0,-161 -130,-291 -291,-291 -160,0 -290,130 -290,291 0,160 130,290 290,290 161,0 291,-130 291,-290zm-1005 -2028l-3292 0c-1513,0 -2742,1229 -2742,2742l0 3292c0,1513 1229,2742 2742,2742l3292 0c1513,0 2742,-1229 2742,-2742l0 -3292c0,-1513 -1229,-2742 -2742,-2742zm1919 6034c0,1057 -862,1919 -1919,1919l-3292 0c-1057,0 -1919,-862 -1919,-1919l0 -3292c0,-1057 862,-1919 1919,-1919l3292 0c1057,0 1919,862 1919,1919l0 3292zm-3565 -3842c-1212,0 -2196,984 -2196,2196 0,1212 984,2196 2196,2196 1212,0 2196,-984 2196,-2196 0,-1212 -984,-2196 -2196,-2196zm0 3569c-756,0 -1373,-617 -1373,-1373 0,-756 617,-1373 1373,-1373 756,0 1373,617 1373,1373 0,756 -617,1373 -1373,1373z"/>
 </g>
</svg>
