<?xml version="1.0" encoding="UTF-8"?>
<!DOCTYPE svg PUBLIC "-//W3C//DTD SVG 1.1//EN" "http://www.w3.org/Graphics/SVG/1.1/DTD/svg11.dtd">
<!-- Creator: CorelDRAW X7 -->
<svg xmlns="http://www.w3.org/2000/svg" xml:space="preserve" width="297mm" height="210mm" version="1.1" style="shape-rendering:geometricPrecision; text-rendering:geometricPrecision; image-rendering:optimizeQuality; fill-rule:evenodd; clip-rule:evenodd"
viewBox="0 0 29700 21000"
 xmlns:xlink="http://www.w3.org/1999/xlink">
 <defs>
  <style type="text/css">
   <![CDATA[
    .fil0 {fill:#FDE400}
   ]]>
  </style>
 </defs>
 <g id="Layer_x0020_1">
  <metadata id="CorelCorpID_0Corel-Layer"/>
  <path class="fil0" d="M14850 3110c4081,0 7390,3309 7390,7390 0,4081 -3309,7390 -7390,7390 -4081,0 -7390,-3309 -7390,-7390 0,-4081 3309,-7390 7390,-7390zm4025 9238l-1661 -478c-222,-67 -458,0 -619,162l-404 410c-175,175 -430,236 -659,141 -787,-316 -2448,-1789 -2872,-2529 -121,-215 -101,-477 47,-672l357 -458c141,-181 168,-424 80,-632l-699 -1588c-168,-376 -660,-491 -976,-222 -464,397 -1015,996 -1083,1655 -114,1164 384,2637 2274,4406 2193,2038 3942,2307 5078,2032 653,-155 1164,-781 1494,-1299 222,-350 47,-814 -357,-928z"/>
 </g>
</svg>
